{"title":"Race 2008 Hindi 720p BRRip x264 AAC TaRa.mkv","uid":14442719,"size":1387915000,"categoryP":"video","categoryS":"hd___movies","magnet":"?xt=urn:btih:8699f86d2aa4aa55ca44f2dde24cdae80e041fab&amp;dn=Race+2008+Hindi+720p+BRRip+x264+AAC+TaRa.mkv&amp;tr=udp%3A%2F%2Ftracker.leechers-paradise.org%3A6969&amp;tr=udp%3A%2F%2Fzer0day.ch%3A1337&amp;tr=udp%3A%2F%2Fopen.demonii.com%3A1337&amp;tr=udp%3A%2F%2Ftracker.coppersurfer.tk%3A6969&amp;tr=udp%3A%2F%2Fexodus.desync.com%3A6969","seeders":0,"leechers":1,"uploader":"MdTaRa","files":1,"time":1461693954,"description":"General\r\nComplete name               : Race 2008 Hindi 720p BRRip x264 AAC TaRa.mkv\r\nFormat                      : Matroska\r\nFormat version              : Version 4 / Version 2\r\nFile size                   : 1.29 GiB\r\nDuration                    : 2h 35mn\r\nOverall bit rate            : 1 192 Kbps\r\nMovie name                  : Race 2008 Hindi 720p BRRip x264 AAC TaRa \r\nEncoded date                : UTC 2016-04-26 15:46:36\r\nWriting application         : mkvmerge v8.3.0 ('Over the Horizon') 64bit\r\nWriting library             : libebml v1.3.1 + libmatroska v1.4.2\r\n\r\nVideo\r\nID                          : 1\r\nFormat                      : AVC\r\nFormat/Info                 : Advanced Video Codec\r\nFormat profile              :   \r\nFormat settings, CABAC      : Yes\r\nFormat settings, ReFrames   : 4 frames\r\nCodec ID                    : V_MPEG4/ISO/AVC\r\nDuration                    : 2h 35mn\r\nBit rate                    : 999 Kbps\r\nWidth                       : 1 280 pixels\r\nHeight                      : 544 pixels\r\nDisplay aspect ratio        : 2.35:1\r\nFrame rate mode             : Constant\r\nFrame rate                  : 23.976 (24000/1001) fps\r\nColor space                 : YUV\r\nChroma subsampling          : 4:2:0\r\nBit depth                   : 8 bits\r\nScan type                   : Progressive\r\nBits/(Pixel*Frame)          : 0.060\r\nStream size                 : 1.08 GiB (84%)\r\nTitle                       : = __ TaRa ~ DDR __ =\r\nLanguage                    : Hindi\r\nDefault                     : Yes\r\nForced                      : No\r\n\r\nAudio\r\nID                          : 2\r\nFormat                      : AAC\r\nFormat/Info                 : Advanced Audio Codec\r\nFormat profile              : HE-AAC / LC\r\nCodec ID                    : A_AAC\r\nDuration                    : 2h 35mn\r\nBit rate                    : 192 Kbps\r\nChannel(s)                  : 6 channels\r\nChannel positions           : Front: L C R, Side: L R, LFE\r\nSampling rate               : 48.0 KHz / 24.0 KHz\r\nFrame rate                  : 23.438 fps (1024 spf)\r\nCompression mode            : Lossy\r\nStream size                 : 213 MiB (16%)\r\nTitle                       : = __ TaRa ~ DDR __ =\r\nLanguage                    : Hindi\r\nDefault                     : Yes\r\nForced                      : No","torrent":{"xt":"urn:btih:8699f86d2aa4aa55ca44f2dde24cdae80e041fab","amp;dn":"Race+2008+Hindi+720p+BRRip+x264+AAC+TaRa.mkv","amp;tr":["udp%3A%2F%2Ftracker.leechers-paradise.org%3A6969","udp%3A%2F%2Fzer0day.ch%3A1337","udp%3A%2F%2Fopen.demonii.com%3A1337","udp%3A%2F%2Ftracker.coppersurfer.tk%3A6969","udp%3A%2F%2Fexodus.desync.com%3A6969"],"infoHash":"8699f86d2aa4aa55ca44f2dde24cdae80e041fab","infoHashBuffer":{"type":"Buffer","data":[134,153,248,109,42,164,170,85,202,68,242,221,226,76,218,232,14,4,31,171]},"announce":[],"urlList":[]}}